<svg id="visual" viewBox="0 0 900 200" width="900" height="200" xmlns="http://www.w3.org/2000/svg" xmlns:xlink="http://www.w3.org/1999/xlink" version="1.1"><rect x="0" y="0" width="900" height="200" fill="#05445e"></rect><path d="M0 124L21.5 122.2C43 120.3 86 116.7 128.8 116C171.7 115.3 214.3 117.7 257.2 120.5C300 123.3 343 126.7 385.8 125.3C428.7 124 471.3 118 514.2 113.2C557 108.3 600 104.7 642.8 107.2C685.7 109.7 728.3 118.3 771.2 123.3C814 128.3 857 129.7 878.5 130.3L900 131L900 201L878.5 201C857 201 814 201 771.2 201C728.3 201 685.7 201 642.8 201C600 201 557 201 514.2 201C471.3 201 428.7 201 385.8 201C343 201 300 201 257.2 201C214.3 201 171.7 201 128.8 201C86 201 43 201 21.5 201L0 201Z" fill="#189ab4"></path><path d="M0 132L21.5 131.8C43 131.7 86 131.3 128.8 134.2C171.7 137 214.3 143 257.2 143.5C300 144 343 139 385.8 138.2C428.7 137.3 471.3 140.7 514.2 143.3C557 146 600 148 642.8 147C685.7 146 728.3 142 771.2 139.2C814 136.3 857 134.7 878.5 133.8L900 133L900 201L878.5 201C857 201 814 201 771.2 201C728.3 201 685.7 201 642.8 201C600 201 557 201 514.2 201C471.3 201 428.7 201 385.8 201C343 201 300 201 257.2 201C214.3 201 171.7 201 128.8 201C86 201 43 201 21.5 201L0 201Z" fill="#2eadbf"></path><path d="M0 147L21.5 147.3C43 147.7 86 148.3 128.8 148.3C171.7 148.3 214.3 147.7 257.2 146C300 144.3 343 141.7 385.8 141.8C428.7 142 471.3 145 514.2 146C557 147 600 146 642.8 146.2C685.7 146.3 728.3 147.7 771.2 148.8C814 150 857 151 878.5 151.5L900 152L900 201L878.5 201C857 201 814 201 771.2 201C728.3 201 685.7 201 642.8 201C600 201 557 201 514.2 201C471.3 201 428.7 201 385.8 201C343 201 300 201 257.2 201C214.3 201 171.7 201 128.8 201C86 201 43 201 21.5 201L0 201Z" fill="#44c0c9"></path><path d="M0 175L21.5 172.3C43 169.7 86 164.3 128.8 162.5C171.7 160.7 214.3 162.3 257.2 164.2C300 166 343 168 385.8 167.5C428.7 167 471.3 164 514.2 162.8C557 161.7 600 162.3 642.8 164.5C685.7 166.7 728.3 170.3 771.2 171C814 171.7 857 169.3 878.5 168.2L900 167L900 201L878.5 201C857 201 814 201 771.2 201C728.3 201 685.7 201 642.8 201C600 201 557 201 514.2 201C471.3 201 428.7 201 385.8 201C343 201 300 201 257.2 201C214.3 201 171.7 201 128.8 201C86 201 43 201 21.5 201L0 201Z" fill="#5cd3d2"></path><path d="M0 171L21.5 170.8C43 170.7 86 170.3 128.8 171C171.7 171.7 214.3 173.3 257.2 175C300 176.7 343 178.3 385.8 180.2C428.7 182 471.3 184 514.2 184.2C557 184.3 600 182.7 642.8 179.8C685.7 177 728.3 173 771.2 171.2C814 169.3 857 169.7 878.5 169.8L900 170L900 201L878.5 201C857 201 814 201 771.2 201C728.3 201 685.7 201 642.8 201C600 201 557 201 514.2 201C471.3 201 428.7 201 385.8 201C343 201 300 201 257.2 201C214.3 201 171.7 201 128.8 201C86 201 43 201 21.5 201L0 201Z" fill="#75e6da"></path></svg>